<svg width="16" height="16" viewBox="0 0 16 16" fill="none" xmlns="http://www.w3.org/2000/svg">
<path d="M4.63768 15.4589C4.21256 15.4589 3.84876 15.3077 3.54628 15.0052C3.24328 14.7022 3.09179 14.3382 3.09179 13.913C3.09179 13.4879 3.24328 13.1239 3.54628 12.8209C3.84876 12.5184 4.21256 12.3671 4.63768 12.3671C5.0628 12.3671 5.4266 12.5184 5.72908 12.8209C6.03208 13.1239 6.18357 13.4879 6.18357 13.913C6.18357 14.3382 6.03208 14.7022 5.72908 15.0052C5.4266 15.3077 5.0628 15.4589 4.63768 15.4589ZM12.3671 15.4589C11.942 15.4589 11.5782 15.3077 11.2757 15.0052C10.9728 14.7022 10.8213 14.3382 10.8213 13.913C10.8213 13.4879 10.9728 13.1239 11.2757 12.8209C11.5782 12.5184 11.942 12.3671 12.3671 12.3671C12.7923 12.3671 13.1563 12.5184 13.4593 12.8209C13.7618 13.1239 13.913 13.4879 13.913 13.913C13.913 14.3382 13.7618 14.7022 13.4593 15.0052C13.1563 15.3077 12.7923 15.4589 12.3671 15.4589ZM2.02899 11.5942L4.3285 7.42029L1.54589 1.54589H0V0H2.51208L3.24638 1.54589H16L12.1546 8.50241H5.48792L4.63768 10.0483H13.913V11.5942H2.02899Z" fill="#F9F9F9"/>
</svg>
