<svg width="16" height="14" viewBox="0 0 16 14" fill="none" xmlns="http://www.w3.org/2000/svg">
<path d="M8.20513 3.28205H1.64103C1.2058 3.28205 0.788397 3.45494 0.480645 3.7627C0.172893 4.07045 0 4.48785 0 4.92308V8.20513C0 8.64036 0.172893 9.05776 0.480645 9.36551C0.788397 9.67326 1.2058 9.84615 1.64103 9.84615H2.46154V13.1282C2.46154 13.3458 2.54799 13.5545 2.70186 13.7084C2.85574 13.8623 3.06444 13.9487 3.28205 13.9487H4.92308C5.14069 13.9487 5.34939 13.8623 5.50327 13.7084C5.65714 13.5545 5.74359 13.3458 5.74359 13.1282V9.84615H8.20513L12.3077 13.1282V0L8.20513 3.28205ZM16 6.5641C16 7.96718 15.2123 9.23897 13.9487 9.84615V3.28205C15.2041 3.89744 16 5.16923 16 6.5641Z" fill="#F9F9F9"/>
</svg>
